# xmcd
#
# Track frame offsets: 
#        150
#        17388
#        31926
#        44966
#        59567
#        75595
#        91367
#        108966
#        124480
#        142521
#        164282
#        180750
#        198376
#        212909
#        227967
#        243072
#        258813
#        276499
#        290687
#        308953
#        325878
#
# Disc length: 4534 seconds
#
# Revision: 1
# Processed by: cddbd v1.5.2PL0 Copyright (c) Steve Scherf et al.
# Submitted via: ExactAudioCopy v0.99pb4
#
DISCID=2811b415
DTITLE=B&B - Я Буду Верен Тебе Всегда
DYEAR=2005
DGENRE=R&B
TTITLE0=За Горизонт Птицею
TTITLE1=Я Буду Верен Тебе
TTITLE2=Потрясите Девки Задом
TTITLE3=Хочу Я Стать Звездою
TTITLE4=Рождение
TTITLE5=После Тебя
TTITLE6=Регги
TTITLE7=Друг
TTITLE8=Зозуля
TTITLE9=Слушай B&B
TTITLE10=Снова С Тобой
TTITLE11=Я Jiffy
TTITLE12=Упрек
TTITLE13=Воспоминание
TTITLE14=Лето Хочу
TTITLE15=Хорошо
TTITLE16=Айболит Любит
TTITLE17=Я Буду Верен Тебе (Ajbolit Remix)
TTITLE18=Потрясите Девки Задом (Max Gee and Dmitryy Gee Soopaclub Mix)
TTITLE19=Хочу Я Стать Звездою (The Obolon Bastardz Remix Edition)
TTITLE20=Потрясите Девки Задом (The Obolon Bastardz Garage Groove Vari
TTITLE20=ante)
EXTD=
EXTT0=
EXTT1=
EXTT2=
EXTT3=
EXTT4=
EXTT5=
EXTT6=
EXTT7=
EXTT8=
EXTT9=
EXTT10=
EXTT11=
EXTT12=
EXTT13=
EXTT14=
EXTT15=
EXTT16=
EXTT17=
EXTT18=
EXTT19=
EXTT20=
PLAYORDER=
